<svg width="207" height="187" viewBox="0 0 207 187" fill="none" xmlns="http://www.w3.org/2000/svg">
<g clip-path="url(#clip0_72_349)">
<path d="M24.95 80.0098C20.0141 80.0058 15.1879 81.466 11.0821 84.2056C6.9762 86.9452 3.77519 90.841 1.88401 95.4003C-0.00717354 99.9595 -0.503546 104.977 0.457706 109.819C1.41896 114.66 3.79463 119.108 7.28415 122.599C10.7737 126.089 15.2203 128.467 20.0613 129.43C24.9023 130.393 29.9203 129.899 34.4803 128.01C39.0403 126.12 42.9374 122.921 45.6786 118.816C48.4199 114.711 49.882 109.886 49.88 104.95C49.8774 98.3378 47.2503 91.9973 42.5759 87.321C37.9014 82.6447 31.562 80.0151 24.95 80.0098ZM24.95 118.94C22.1811 118.94 19.4743 118.119 17.172 116.58C14.8697 115.042 13.0753 112.856 12.0157 110.297C10.9561 107.739 10.6788 104.924 11.219 102.209C11.7592 99.4928 13.0926 96.9982 15.0505 95.0403C17.0084 93.0824 19.503 91.749 22.2187 91.2088C24.9345 90.6686 27.7494 90.9458 30.3076 92.0055C32.8657 93.0651 35.0522 94.8595 36.5906 97.1618C38.1289 99.4641 38.95 102.171 38.95 104.94C38.95 106.778 38.5879 108.599 37.8843 110.297C37.1808 111.996 36.1495 113.539 34.8495 114.839C33.5495 116.139 32.0061 117.171 30.3076 117.874C28.609 118.578 26.7885 118.94 24.95 118.94Z" fill="#BBBBBB"/>
<path d="M49.89 39.3501C49.89 36.3236 47.4365 33.8701 44.41 33.8701C41.3835 33.8701 38.93 36.3236 38.93 39.3501V100.39C38.93 103.417 41.3835 105.87 44.41 105.87C47.4365 105.87 49.89 103.417 49.89 100.39V39.3501Z" fill="#BBBBBB"/>
<path d="M69.62 39.1101C69.62 39.9624 69.4521 40.8063 69.126 41.5937C68.7998 42.3811 68.3218 43.0966 67.7191 43.6992C67.1165 44.3019 66.401 44.7799 65.6136 45.1061C64.8262 45.4322 63.9823 45.6001 63.13 45.6001H38.93V37.7201C38.93 36.3622 39.4694 35.0599 40.4296 34.0997C41.3898 33.1395 42.6921 32.6001 44.05 32.6001H63.13C63.984 32.6001 64.8295 32.7686 65.6182 33.096C66.4069 33.4234 67.1233 33.9033 67.7262 34.508C68.3291 35.1128 68.8067 35.8306 69.1317 36.6203C69.4567 37.41 69.6226 38.2561 69.62 39.1101Z" fill="#BBBBBB"/>
<path d="M82.08 137.07C77.1445 137.068 72.3193 138.53 68.2148 141.27C64.1102 144.011 60.9108 147.908 59.0211 152.467C57.1315 157.027 56.6365 162.044 57.5989 166.885C58.5613 171.726 60.9378 176.172 64.4277 179.662C67.9176 183.152 72.3642 185.528 77.205 186.491C82.0457 187.453 87.0632 186.958 91.6226 185.069C96.182 183.179 100.079 179.98 102.819 175.875C105.56 171.771 107.022 166.945 107.02 162.01C107.017 155.396 104.389 149.054 99.7123 144.378C95.0357 139.701 88.6937 137.072 82.08 137.07ZM82.08 176C79.3111 176 76.6043 175.179 74.302 173.64C71.9997 172.102 70.2053 169.916 69.1457 167.357C68.0861 164.799 67.8088 161.984 68.349 159.269C68.8892 156.553 70.2226 154.058 72.1805 152.1C74.1384 150.142 76.633 148.809 79.3488 148.269C82.0645 147.729 84.8794 148.006 87.4376 149.065C89.9957 150.125 92.1822 151.92 93.7206 154.222C95.2589 156.524 96.08 159.231 96.08 162C96.08 165.713 94.605 169.274 91.9795 171.899C89.354 174.525 85.793 176 82.08 176Z" fill="#BBBBBB"/>
<path d="M107.02 96.3999C107.02 93.3734 104.567 90.9199 101.54 90.9199C98.5135 90.9199 96.06 93.3734 96.06 96.3999V157.44C96.06 160.466 98.5135 162.92 101.54 162.92C104.567 162.92 107.02 160.466 107.02 157.44V96.3999Z" fill="#BBBBBB"/>
<path d="M181.8 2.00415e-06C176.865 -0.00197575 172.039 1.45987 167.935 4.20065C163.83 6.94144 160.631 10.838 158.741 15.3974C156.851 19.9569 156.357 24.9743 157.319 29.815C158.281 34.6558 160.658 39.1024 164.148 42.5923C167.638 46.0822 172.084 48.4587 176.925 49.4211C181.766 50.3835 186.783 49.8885 191.343 47.9989C195.902 46.1092 199.799 42.9098 202.539 38.8052C205.28 34.7007 206.742 29.8755 206.74 24.94C206.737 18.3263 204.109 11.9843 199.432 7.30768C194.756 2.6311 188.414 0.00265225 181.8 2.00415e-06ZM181.8 38.93C179.031 38.93 176.324 38.1089 174.022 36.5706C171.72 35.0322 169.925 32.8457 168.866 30.2876C167.806 27.7294 167.529 24.9145 168.069 22.1987C168.609 19.483 169.943 16.9884 171.901 15.0305C173.858 13.0726 176.353 11.7392 179.069 11.199C181.784 10.6588 184.599 10.936 187.158 11.9957C189.716 13.0553 191.902 14.8497 193.441 17.152C194.979 19.4543 195.8 22.1611 195.8 24.93C195.8 28.643 194.325 32.204 191.699 34.8295C189.074 37.455 185.513 38.93 181.8 38.93Z" fill="#BBBBBB"/>
<path d="M140.06 117.65C135.124 117.648 130.299 119.11 126.195 121.851C122.09 124.591 118.891 128.488 117.001 133.047C115.111 137.607 114.617 142.624 115.579 147.465C116.541 152.306 118.918 156.752 122.408 160.242C125.898 163.732 130.344 166.109 135.185 167.071C140.026 168.033 145.043 167.538 149.603 165.649C154.162 163.759 158.059 160.56 160.799 156.455C163.54 152.351 165.002 147.525 165 142.59C164.997 135.976 162.369 129.634 157.692 124.958C153.016 120.281 146.674 117.653 140.06 117.65ZM140.06 156.58C137.291 156.58 134.584 155.759 132.282 154.22C129.98 152.682 128.185 150.496 127.126 147.937C126.066 145.379 125.789 142.564 126.329 139.849C126.869 137.133 128.203 134.638 130.161 132.68C132.118 130.722 134.613 129.389 137.329 128.849C140.044 128.309 142.859 128.586 145.418 129.646C147.976 130.705 150.162 132.5 151.701 134.802C153.239 137.104 154.06 139.811 154.06 142.58C154.052 146.288 152.574 149.841 149.949 152.46C147.324 155.079 143.768 156.55 140.06 156.55V156.58Z" fill="#BBBBBB"/>
<path d="M206.74 24.69C206.74 21.6634 204.287 19.21 201.26 19.21C198.233 19.21 195.78 21.6634 195.78 24.69V70.32C195.78 73.3465 198.233 75.8 201.26 75.8C204.287 75.8 206.74 73.3465 206.74 70.32V24.69Z" fill="#BBBBBB"/>
<path d="M165 77.4702C165 74.4437 162.547 71.9902 159.52 71.9902C156.493 71.9902 154.04 74.4437 154.04 77.4702V144.67C154.04 147.697 156.493 150.15 159.52 150.15C162.547 150.15 165 147.697 165 144.67V77.4702Z" fill="#BBBBBB"/>
<path d="M161.024 82.6515C163.933 81.8152 165.613 78.7794 164.777 75.8707C163.94 72.962 160.905 71.2819 157.996 72.1182L120.476 82.9053C117.567 83.7415 115.887 86.7774 116.723 89.6861C117.559 92.5948 120.595 94.2748 123.504 93.4386L161.024 82.6515Z" fill="#BBBBBB"/>
</g>
<defs>
<clipPath id="clip0_72_349">
<rect width="206.74" height="186.96" fill="white"/>
</clipPath>
</defs>
</svg>
