<svg width="50" height="50" viewBox="0 0 50 50" fill="none" xmlns="http://www.w3.org/2000/svg">
<path d="M44.0476 0H5.95238C2.66667 0 0 2.66667 0 5.95238V44.0476C0 47.3333 2.66667 50 5.95238 50H44.0476C47.3333 50 50 47.3333 50 44.0476V5.95238C50 2.66667 47.3333 0 44.0476 0ZM40.1429 34.5238L35.7024 34.5119C35.7024 34.5119 35.6071 34.5238 35.4524 34.5238C35.0952 34.5238 34.3571 34.4286 33.4881 33.8333C31.9286 32.75 30.4405 30.0595 29.2619 30.0595C29.1786 30.0595 29.1071 30.0714 29.0357 30.0952C28.0119 30.4167 27.7024 31.4405 27.7024 32.6905C27.7024 33.131 27.3929 33.3333 26.5595 33.3333H24.2619C21.6905 33.3333 19.2024 33.2738 16.4048 30.2143C12.2857 25.7024 8.42857 17.6786 8.42857 17.6786C8.42857 17.6786 8.21429 17.2143 8.44048 16.9405C8.65476 16.6905 9.15476 16.6667 9.34524 16.6667C9.39286 16.6667 9.41667 16.6667 9.41667 16.6667H14.1786C14.1786 16.6667 14.619 16.75 14.9405 16.9881C15.2143 17.1905 15.3571 17.5595 15.3571 17.5595C15.3571 17.5595 16.1667 19.131 17.1786 20.9048C18.881 23.8333 19.7976 24.8095 20.4524 24.8095C20.5595 24.8095 20.6667 24.7857 20.7738 24.7262C21.75 24.1905 21.4643 19.8571 21.4643 19.8571C21.4643 19.8571 21.4762 18.2857 20.9643 17.5952C20.5714 17.0476 19.8214 16.8929 19.4881 16.8452C19.2262 16.8095 19.6548 16.1905 20.2262 15.9048C20.9643 15.5476 22.1905 15.4762 23.6667 15.4762H24.381C25.7738 15.5 25.8095 15.6429 26.3571 15.7738C28 16.1667 27.4405 17.7024 27.4405 21.381C27.4405 22.5595 27.2262 24.2143 28.0714 24.7738C28.131 24.8095 28.2143 24.8333 28.3214 24.8333C28.869 24.8333 30.0476 24.131 31.9286 20.9524C32.9762 19.1429 33.7857 17.3452 33.7857 17.3452C33.7857 17.3452 33.9643 17.0238 34.2381 16.8571C34.5 16.7024 34.5 16.7024 34.8452 16.7024H34.881C35.2619 16.7024 39.0476 16.6667 39.881 16.6667H39.9762C40.7738 16.6667 41.5 16.6786 41.631 17.1667C41.8214 17.9048 41.0476 19.2262 39.0119 21.9643C35.6548 26.4524 35.2738 26.119 38.0595 28.7143C40.7262 31.1905 41.2738 32.3929 41.369 32.5476C42.4762 34.381 40.1429 34.5238 40.1429 34.5238Z" fill="#BBBBBB"/>
</svg>
