<svg width="50" height="40" viewBox="0 0 50 40" fill="none" xmlns="http://www.w3.org/2000/svg">
<path d="M48.955 5.465C48.38 3.315 46.685 1.62 44.535 1.045C40.635 5.21541e-07 25 0 25 0C25 0 9.365 5.21541e-07 5.465 1.045C3.315 1.62 1.62 3.315 1.045 5.465C-7.45058e-08 9.365 0 20 0 20C0 20 -7.45058e-08 30.635 1.045 34.535C1.62 36.685 3.315 38.38 5.465 38.955C9.365 40 25 40 25 40C25 40 40.635 40 44.535 38.955C46.6875 38.38 48.38 36.685 48.955 34.535C50 30.635 50 20 50 20C50 20 50 9.365 48.955 5.465ZM20 26.495V13.505C20 12.5425 21.0425 11.9425 21.875 12.4225L33.125 18.9175C33.9575 19.3975 33.9575 20.6025 33.125 21.0825L21.875 27.5775C21.0425 28.06 20 27.4575 20 26.495Z" fill="#BBBBBB"/>
</svg>
